solid Exported from Blender-3.0.0
facet normal -1.000000 0.000000 0.000000
outer loop
vertex -0.050000 -0.018226 -0.025000
vertex -0.050000 -0.018226 0.025000
vertex -0.050000 0.018226 0.025000
endloop
endfacet
facet normal -1.000000 0.000000 0.000000
outer loop
vertex -0.050000 -0.018226 -0.025000
vertex -0.050000 0.018226 0.025000
vertex -0.050000 0.018226 -0.025000
endloop
endfacet
facet normal -0.302817 0.953049 0.000000
outer loop
vertex -0.050000 0.018226 -0.025000
vertex -0.050000 0.018226 0.025000
vertex 0.050000 0.050000 0.025000
endloop
endfacet
facet normal -0.302817 0.953049 0.000000
outer loop
vertex -0.050000 0.018226 -0.025000
vertex 0.050000 0.050000 0.025000
vertex 0.050000 0.050000 -0.025000
endloop
endfacet
facet normal 1.000000 0.000000 0.000000
outer loop
vertex 0.050000 0.050000 -0.025000
vertex 0.050000 0.050000 0.025000
vertex 0.050000 -0.050000 0.025000
endloop
endfacet
facet normal 1.000000 0.000000 0.000000
outer loop
vertex 0.050000 0.050000 -0.025000
vertex 0.050000 -0.050000 0.025000
vertex 0.050000 -0.050000 -0.025000
endloop
endfacet
facet normal -0.302817 -0.953049 0.000000
outer loop
vertex 0.050000 -0.050000 -0.025000
vertex 0.050000 -0.050000 0.025000
vertex -0.050000 -0.018226 0.025000
endloop
endfacet
facet normal -0.302817 -0.953049 0.000000
outer loop
vertex 0.050000 -0.050000 -0.025000
vertex -0.050000 -0.018226 0.025000
vertex -0.050000 -0.018226 -0.025000
endloop
endfacet
facet normal -0.000000 0.000000 -1.000000
outer loop
vertex -0.050000 0.018226 -0.025000
vertex 0.050000 0.050000 -0.025000
vertex 0.050000 -0.050000 -0.025000
endloop
endfacet
facet normal 0.000000 0.000000 -1.000000
outer loop
vertex -0.050000 0.018226 -0.025000
vertex 0.050000 -0.050000 -0.025000
vertex -0.050000 -0.018226 -0.025000
endloop
endfacet
facet normal 0.000000 0.000000 1.000000
outer loop
vertex 0.050000 0.050000 0.025000
vertex -0.050000 0.018226 0.025000
vertex -0.050000 -0.018226 0.025000
endloop
endfacet
facet normal -0.000000 0.000000 1.000000
outer loop
vertex 0.050000 0.050000 0.025000
vertex -0.050000 -0.018226 0.025000
vertex 0.050000 -0.050000 0.025000
endloop
endfacet
endsolid Exported from Blender-3.0.0
